#!OML:ASF F:\VICON\USERDATA\INSTALL\rory3\rory3.ASF
:FULLY-SPECIFIED
:DEGREES
1227
root 6.15858 15.1994 -23.587 -192.946 13.0058 -183.911
lowerback 33.3537 -4.82481 -0.636295
upperback 8.8287 -3.48298 3.624
thorax -7.0678 -0.660706 5.25045
lowerneck -9.69691 -5.84407 -6.1061
upperneck 20.4791 -5.12767 -4.46318
head 8.01933 -3.0012 -0.92619
rclavicle 5.56597e-015 4.6118e-014
rhumerus -14.3596 5.7419 -69.6347
rradius 97.7003
rwrist 49.1448
rhand -5.54348 1.03307
rfingers 7.12502
rthumb 20.2712 -27.9291
lclavicle 5.56597e-015 4.6118e-014
lhumerus -31.0076 4.22411 73.6848
lradius 48.9815
lwrist 4.80268
lhand 163.434 -488.9
lfingers 7.12502
lthumb -170.346 620.859
rfemur -45.3452 3.67399 9.58043
rtibia 44.0393
rfoot 16.489 -11.972
rtoes 20.6735
lfemur -31.0083 3.03789 -31.9053
ltibia 76.4861
lfoot -12.3089 -14.3167
ltoes 7.20646
1228
root 6.2662 15.2242 -23.7869 -192.728 12.393 -182.908
lowerback 33.858 -4.97092 -0.328113
upperback 8.54986 -3.47349 4.15626
thorax -7.55889 -0.643192 5.67541
lowerneck -9.27704 -5.86324 -6.20152
upperneck 20.6175 -5.10206 -4.55921
head 7.99189 -2.98857 -0.928336
rclavicle 4.21423e-014 -4.45278e-014
rhumerus -15.721 6.76591 -69.4833
rradius 95.4443
rwrist 48.9914
rhand -7.19936 0.290111
rfingers 7.12502
rthumb 18.6791 -28.8331
lclavicle 4.21423e-014 -4.45278e-014
lhumerus -31.4466 3.73752 74.6078
lradius 49.6443
lwrist 3.87734
lhand 164.319 -489.898
lfingers 7.12502
lthumb -169.493 619.819
rfemur -44.9913 4.82219 9.86409
rtibia 42.0838
rfoot 19.7577 -12.3245
rtoes 19.8499
lfemur -30.6774 3.41694 -30.3243
ltibia 77.3059
lfoot -11.5439 -15.9011
ltoes 10.5782
1229
root 6.37029 15.2373 -24.003 -192.858 11.8552 -182.726
lowerback 33.3048 -4.86523 -0.266238
upperback 8.9292 -3.24621 4.29078
thorax -6.95579 -0.519297 5.6706
lowerneck -7.81032 -6.17763 -6.5406
upperneck 19.8658 -5.67281 -4.29765
head 7.50357 -3.22364 -0.781299
rclavicle 5.08889e-014 -4.77083e-014
rhumerus -16.658 6.60293 -69.2569
rradius 93.1384
rwrist 48.4873
rhand -8.47062 -0.29691
rfingers 7.12502
rthumb 17.456 -29.5331
lclavicle 5.08889e-014 -4.77083e-014
lhumerus -30.8277 2.5627 75.7528
lradius 50.0651
lwrist 3.04328
lhand 164.361 -491.487
lfingers 7.12502
lthumb -169.452 618.228
rfemur -44.5666 5.89158 9.41236
rtibia 40.5788
rfoot 22.078 -13.6545
rtoes 26.0429
lfemur -30.004 3.97731 -29.6761
ltibia 77.9923
lfoot -11.0136 -17.3102
ltoes 14.32
1230
root 6.45625 15.2053 -24.1719 -192.116 11.1333 -182.131
lowerback 33.5946 -4.98811 0.0440783
upperback 8.64692 -3.24603 4.67245
thorax -7.37635 -0.515426 5.93067
lowerneck -8.32031 -6.43137 -7.1166
upperneck 20.3681 -5.99027 -3.64227
head 7.80956 -3.37631 -0.534543
rclavicle -3.49861e-014 1.90833e-014
rhumerus -17.0313 6.86297 -69.248
rradius 90.4603
rwrist 47.9402
rhand -8.89094 -0.804465
rfingers 7.12502
rthumb 17.0514 -30.0761
lclavicle -3.49861e-014 1.90833e-014
lhumerus -30.6929 2.13371 76.6582
lradius 50.768
lwrist 2.52029
lhand 164.431 -492.535
lfingers 7.12502
lthumb -169.384 617.177
rfemur -45.2928 6.30415 9.34176
rtibia 39.6156
rfoot 23.8668 -15.228
rtoes 30.1716
lfemur -30.8004 4.14879 -28.7098
ltibia 78.9786
lfoot -10.119 -18.8583
ltoes 19.7567
1231
root 6.54172 15.1965 -24.3925 -192.406 10.9576 -182.076
lowerback 33.8061 -4.81788 0.00373607
upperback 8.75143 -2.96506 4.80519
thorax -7.36319 -0.360721 5.99596
lowerneck -8.60766 -6.78758 -7.41454
upperneck 20.7975 -6.41674 -3.39191
head 8.03455 -3.58389 -0.466353
rclavicle -1.90833e-014 3.97569e-014
rhumerus -17.6039 6.77759 -69.2672
rradius 87.6753
rwrist 46.8893
rhand -9.09145 -1.5182
rfingers 7.12502
rthumb 16.8584 -30.8064
lclavicle -1.90833e-014 3.97569e-014
lhumerus -30.6573 1.13424 77.6868
lradius 51.3904
lwrist 2.05654
lhand 164.557 -493.385
lfingers 7.12502
lthumb -169.262 616.321
rfemur -45.0112 6.7647 9.32114
rtibia 39.1957
rfoot 24.7981 -16.295
rtoes 31.7279
lfemur -29.9092 4.92042 -28.1321
ltibia 79.5164
lfoot -9.87662 -20.1537
ltoes 17.3031
1232
root 6.62958 15.1671 -24.6067 -192.423 10.1789 -182.858
lowerback 33.7099 -4.70894 -0.633403
upperback 8.77631 -3.07265 4.62922
thorax -7.263 -0.415122 6.18362
lowerneck -7.26237 -6.84012 -7.51813
upperneck 20.1211 -6.60437 -3.37674
head 7.57678 -3.64739 -0.401715
rclavicle -5.88403e-014 7.95139e-015
rhumerus -17.7532 6.45373 -69.5073
rradius 84.4856
rwrist 45.6631
rhand -9.85977 -1.61815
rfingers 7.12502
rthumb 16.1187 -30.9678
lclavicle -5.88403e-014 7.95139e-015
lhumerus -30.4772 0.256015 78.5193
lradius 51.9508
lwrist 1.69485
lhand 164.185 -493.27
lfingers 7.12502
lthumb -169.622 616.454
rfemur -45.2723 6.05974 8.59532
rtibia 39.4547
rfoot 25.1277 -16.8672
rtoes 30.7775
lfemur -29.2602 5.00921 -28.7538
ltibia 79.8099
lfoot -10.1895 -20.8716
ltoes 19.8394
1233
root 6.71547 15.1422 -24.8353 -192.481 9.862 -183.432
lowerback 33.63 -4.49866 -1.01757
upperback 8.69124 -2.99882 4.44056
thorax -7.32015 -0.39251 6.16358
lowerneck -7.44397 -7.23974 -8.05168
upperneck 20.9103 -7.09479 -2.79156
head 7.93046 -3.87261 -0.196834
rclavicle 4.21423e-014 -3.49861e-014
rhumerus -18.0592 5.99992 -69.9309
rradius 80.9222
rwrist 44.5966
rhand -10.2331 -1.69539
rfingers 7.12502
rthumb 15.7591 -31.0738
lclavicle 4.21423e-014 -3.49861e-014
lhumerus -30.8613 -0.620586 79.2094
lradius 52.8007
lwrist 1.2202
lhand 164.168 -493.48
lfingers 7.12502
lthumb -169.638 616.244
rfemur -45.4274 5.38063 8.57885
rtibia 40.147
rfoot 24.6634 -17.9313
rtoes 29.6379
lfemur -28.3746 5.51778 -28.9405
ltibia 79.9079
lfoot -10.3207 -21.8809
ltoes 9.48456
1234
root 6.774 15.1121 -25.061 -192.485 8.5718 -185.396
lowerback 33.198 -4.47169 -2.21137
upperback 8.52034 -3.54208 3.80227
thorax -7.23694 -0.68417 6.30709
lowerneck -6.57664 -7.41191 -8.22056
upperneck 20.8569 -7.37835 -2.63963
head 7.77958 -3.9864 -0.114006
rclavicle 1.27222e-014 -4.45278e-014
rhumerus -18.103 5.64055 -70.4444
rradius 77.4627
rwrist 43.8384
rhand -10.0747 -2.64106
rfingers 7.12502
rthumb 15.9117 -32.0074
lclavicle 1.27222e-014 -4.45278e-014
lhumerus -31.2313 -1.37151 79.7913
lradius 53.7066
lwrist 1.0193
lhand 163.902 -493.433
lfingers 7.12502
lthumb -169.894 616.304
rfemur -45.784 2.8119 6.99267
rtibia 40.9204
rfoot 23.932 -17.6595
rtoes 28.0811
lfemur -27.5129 4.86364 -31.2587
ltibia 79.8758
lfoot -10.1053 -22.1362
ltoes 19.9123
1235
root 6.84366 15.0902 -25.2982 -193.073 8.27501 -186.179
lowerback 33.3772 -4.4062 -3.01859
upperback 8.91434 -3.64193 3.58089
thorax -6.81794 -0.704258 6.52573
lowerneck -7.67779 -7.50569 -7.65475
upperneck 21.2557 -7.37881 -3.18904
head 8.06138 -4.0126 -0.432112
rclavicle 2.54444e-014 -1.59028e-014
rhumerus -16.9778 5.44834 -70.9142
rradius 73.3255
rwrist 43.0828
rhand -10.3194 -2.1804
rfingers 7.12502
rthumb 15.6761 -31.5654
lclavicle 2.54444e-014 -1.59028e-014
lhumerus -31.1042 -1.57651 80.3227
lradius 54.399
lwrist 1.00912
lhand 163.322 -493.602
lfingers 7.12502
lthumb -170.454 616.162
rfemur -45.3491 0.849293 7.53916
rtibia 42.0304
rfoot 24.5212 -14.2018
rtoes 20.9897
lfemur -25.8511 5.28624 -31.8006
ltibia 79.9143
lfoot -10.0402 -22.7135
ltoes 13.9769
1236
root 6.94241 15.0382 -25.4663 -192.105 9.28089 -183.124
lowerback 33.2169 -4.65254 -0.445724
upperback 9.18666 -2.90975 4.32683
thorax -6.66382 -0.315598 5.67302
lowerneck -8.77779 -7.90041 -8.30013
upperneck 22.3293 -7.8645 -2.26262
head 8.70964 -4.22984 -0.145486
rclavicle 9.54166e-015 9.85972e-014
rhumerus -15.6064 4.91185 -71.4246
rradius 68.7735
rwrist 42.0921
rhand -10.4437 -1.19524
rfingers 7.12502
rthumb 15.5564 -30.5896
lclavicle 9.54166e-015 9.85972e-014
lhumerus -30.5105 -2.32934 80.6914
lradius 54.711
lwrist 1.40615
lhand 162.583 -493.853
lfingers 7.12502
lthumb -171.167 615.942
rfemur -45.9527 1.30174 11.9975
rtibia 43.0714
rfoot 22.7869 -13.9968
rtoes 23.2104
lfemur -26.5097 6.63784 -27.4268
ltibia 81.0559
lfoot -9.60967 -24.2351
ltoes 26.0423
1237
root 7.00332 14.9762 -25.6868 -192.143 8.19144 -184.875
lowerback 32.8063 -4.60608 -1.63756
upperback 9.34158 -3.31807 3.79264
thorax -6.25134 -0.525759 5.8662
lowerneck -8.10951 -7.87441 -8.17069
upperneck 21.682 -7.97565 -2.1796
head 8.36479 -4.25987 -0.110005
rclavicle 5.48646e-014 -1.59028e-015
rhumerus -14.5039 4.79165 -71.7587
rradius 64.375
rwrist 40.6964
rhand -10.2265 -0.55752
rfingers 7.12502
rthumb 15.7656 -29.9354
lclavicle 5.48646e-014 -1.59028e-015
lhumerus -30.0046 -3.03108 81.025
lradius 54.8689
lwrist 1.90595
lhand 162.247 -494.075
lfingers 7.12502
lthumb -171.491 615.734
rfemur -46.2844 -1.3936 11.1682
rtibia 44.6687
rfoot 21.0131 -11.0323
rtoes 25.8172
lfemur -25.5575 6.18435 -29.5114
ltibia 81.1856
lfoot -9.79788 -24.1466
ltoes 17.9055
1238
root 7.09895 14.9428 -25.9128 -192.66 8.54214 -184.346
lowerback 33.2086 -4.57481 -1.66759
upperback 10.0395 -3.04034 3.94019
thorax -5.66684 -0.32354 5.93317
lowerneck -8.01912 -7.60941 -6.98464
upperneck 20.2971 -7.76113 -3.13266
head 7.77288 -4.16577 -0.550692
rclavicle 1.59028e-015 -3.49861e-014
rhumerus -12.802 5.09076 -72.1129
rradius 59.8032
rwrist 38.8369
rhand -10.5718 0.142119
rfingers 7.12502
rthumb 15.433 -29.2617
lclavicle 1.59028e-015 -3.49861e-014
lhumerus -29.2364 -2.9476 81.2448
lradius 55.1279
lwrist 2.11141
lhand 162.415 -494.253
lfingers 7.12502
lthumb -171.329 615.549
rfemur -45.6599 -2.16163 13.0697
rtibia 46.5925
rfoot 18.3696 -8.79266
rtoes 26.9095
lfemur -23.9131 7.38086 -28.1214
ltibia 81.6377
lfoot -10.6388 -25.0461
ltoes 2.99007
1239
root 7.17486 14.8719 -26.1088 -192.653 8.62971 -184.265
lowerback 33.9977 -4.1291 -1.1812
upperback 8.69761 -2.56247 4.15749
thorax -7.49635 -0.158261 5.80141
lowerneck -3.05262 -7.59103 -6.52359
upperneck 18.5506 -7.74457 -4.91744
head 6.24029 -4.10924 -0.939326
rclavicle 5.56597e-015 -6.67916e-014
rhumerus -15.0051 5.79788 -71.7911
rradius 55.7965
rwrist 36.2245
rhand -11.1701 1.08069
rfingers 7.12502
rthumb 14.8566 -28.3667
lclavicle 5.56597e-015 -6.67916e-014
lhumerus -32.0767 -3.7949 82.4888
lradius 55.8076
lwrist 1.92827
lhand 162.687 -494.703
lfingers 7.12502
lthumb -171.067 615.088
rfemur -45.9909 -3.02042 14.2105
rtibia 48.688
rfoot 16.2625 -7.25403
rtoes 27.6884
lfemur -23.2737 8.04707 -27.5412
ltibia 82.2041
lfoot -11.2179 -25.5897
ltoes 12.6361
1240
root 7.21332 14.7831 -26.257 -192.011 7.38152 -186.116
lowerback 35.5952 -4.04895 -2.61354
upperback 7.66802 -3.12979 3.93756
thorax -9.09189 -0.421462 6.62649
lowerneck -4.25349 -7.47586 -5.24723
upperneck 18.8757 -7.21231 -7.00449
head 6.40743 -3.92575 -1.80862
rclavicle -5.00937e-014 8.11041e-014
rhumerus -14.6223 6.85474 -71.8192
rradius 51.7862
rwrist 33.4732
rhand -11.8646 1.7988
rfingers 7.12502
rthumb 14.1874 -27.6967
lclavicle -5.00937e-014 8.11041e-014
lhumerus -32.7416 -3.02989 83.0226
lradius 56.067
lwrist 2.0376
lhand 163.101 -495.074
lfingers 7.12502
lthumb -170.667 614.7
rfemur -47.8827 -5.28311 12.8278
rtibia 51.1639
rfoot 13.4724 -3.17063
rtoes 21.4072
lfemur -23.6735 7.11108 -30.064
ltibia 82.4294
lfoot -11.059 -25.098
ltoes 20.9505
1241
root 7.30735 14.7425 -26.4055 -191.879 8.3238 -184.566
lowerback 35.5453 -3.89033 -1.63587
upperback 8.37379 -2.32205 4.36897
thorax -8.42415 -0.00490935 6.22865
lowerneck -4.19089 -7.5659 -4.51639
upperneck 17.8929 -7.41624 -7.75214
head 6.01213 -4.02186 -2.13802
rclavicle 1.19271e-014 1.04958e-013
rhumerus -12.8262 6.35954 -71.9899
rradius 47.2961
rwrist 30.0686
rhand -12.2365 1.67488
rfingers 7.12502
rthumb 13.8291 -27.8454
lclavicle 1.19271e-014 1.04958e-013
lhumerus -31.9086 -3.06036 83.3254
lradius 56.2038
lwrist 2.41201
lhand 163.246 -494.997
lfingers 7.12502
lthumb -170.528 614.77
rfemur -48.2196 -3.24853 14.7417
rtibia 52.904
rfoot 10.7601 -6.59844
rtoes 27.1507
lfemur -23.6179 8.49732 -27.3012
ltibia 83.3094
lfoot -11.0697 -26.2252
ltoes 23.7471
